<svg xmlns="http://www.w3.org/2000/svg" width="416" viewBox="0 0 312 142.5" height="190" version="1.0"><path d="m69.035 39.993-1.781 11.342H51.05l-1.36 8.625h14.703l-1.78 11.344H47.91l-3.219 20.251H31.285l8.14-51.562Zm30.019 0 11.297 51.562H96.054l-1.922-8.953H75.664l-4.985 8.953H56.446L84.43 39.993ZM81.007 72.335h11.14l-2.874-16.406h-.125Zm0 0" fill="#facc15"/><path d="M133.119 38.618q8.262 0 15.516 4.25l-6.969 10.39q-3.627-3.422-8.343-3.422a7.65 7.65 0 0 0-4.485 1.407c-1.344.93-2.015 2.078-2.015 3.453 0 1 .476 1.882 1.437 2.64q1.434 1.127 5.266 2.219 5.201 1.566 7.515 3.031 2.326 1.47 3.625 3.625 1.313 2.157 1.313 5.375c0 3.106-.805 6.39-2.407 9.86q-2.39 5.19-7.828 8.265-5.438 3.077-12.89 3.219c-6.387 0-12.133-1.96-17.235-5.89l7.454-10.797q5.343 5.33 11.015 5.328 3.141 0 5.297-1.641 2.156-1.64 2.156-4.172 0-3.281-6.562-5.062-7.94-2.186-10.266-4.688c-1.555-1.663-2.328-3.89-2.328-6.672q-.002-8.747 5.984-14.734 5.985-5.983 14.75-5.984m0 0" fill="#facc15"/><path d="m181.803 39.993-1.783 11.342h-11.077l-6.36 40.22h-13.405l6.36-40.219h-11.079l1.78-11.343Zm0 0" fill="#facc15"/><path d="m187.326 39.726 7.453 14.03 11.828-14.03h16.063l-23.234 26.812-3.907 24.75h-13.406l3.906-24.75-14.765-26.812Zm0 0" fill="#d4d4d4"/><path d="m247.832 39.726-1.782 11.359h-15.92l-1.375 8.61h15.109l-1.766 11.359h-15.126l-1.422 8.89h15.922l-1.78 11.344h-29.33l8.14-51.562Zm0 0" fill="#d4d4d4"/><path d="m292.061 39.726-30.625 40.218h21.61l-1.783 11.344h-44.171l30.766-40.203h-20.236l1.781-11.36Zm0 0" fill="#d4d4d4"/></svg>